<svg height="28" viewBox="0 0 28 28" width="28" xmlns="http://www.w3.org/2000/svg"><path d="m15.5 23.9166667.0654538-9.0469441h2.6571322c.2509494 0 .4630228-.1860167.495734-.434825l.3320653-2.5257546c.0359951-.2737864-.1567727-.5249139-.430559-.560909-.0216088-.002841-.0433803-.004266-.065175-.004266h-2.9891975v-2.25097199c0-1.02078729.2889717-1.71641988 1.7812355-1.71641988l1.4033107-.00060179c.2760586-.00033284.4997855-.22415577.5-.50021441v-2.19563587c.0000813-.26045335-.1998275-.47729839-.459422-.49843229-.8054455-.06557229-1.5767912-.09835844-2.3140373-.09835844-2.744165 0-4.6228945 1.64308599-4.6228945 4.66048678v2.60014789h-2.6036462c-.27614237 0-.5.2238576-.5.5v2.5257546c0 .2761424.22385763.5.5.5h2.6036462v8.5469441c0 .2761423.2238576.5.5.5" fill="#9f9f9f"/></svg>