<svg height="28" viewBox="0 0 28 28" width="28" xmlns="http://www.w3.org/2000/svg"><path d="m14.7704038 5.25047391.6189509.00157683c1.1666247.00465675 1.5089658.01824188 2.218259.05060494.9313354.04247833 1.5674043.19040729 2.1239688.40672552.5753898.22357745 1.0633561.52276875 1.5498292 1.00920713.4864384.48647302.7856297.97443938 1.0092421 1.54982917.2162832.55656453.3642122 1.19263339.4066905 2.1239688.0102199.2239873.0185673.4113811.0253522.5996955l.0062756.1900108c.0124444.4159002.0181203.8940816.020127 1.8093795l.000427 1.7789317c-.0024117 1.6866162-.0147088 2.0159231-.0521818 2.8372099-.0424783.9313354-.1904073 1.5674043-.4066905 2.1239688-.2236124.5753898-.5228037 1.0633561-1.0092421 1.5498292-.4864731.4864384-.9744394.7856297-1.5498292 1.0092421-.5565645.2162832-1.1926334.3642122-2.1239688.4066905-.7756598.0353912-1.1124856.0483261-2.5683578.0516857l-1.8096358.0004961c-1.0733164-.0015347-1.596969-.0070726-2.0475275-.020554l-.1900108-.0062756c-.1883144-.0067849-.3757082-.0151323-.5996955-.0253522-.93133541-.0424783-1.56740427-.1904073-2.1239688-.4066905-.57538979-.2236124-1.06335615-.5228037-1.54982917-1.0092421-.48643838-.4864731-.78562968-.9744394-1.00920713-1.5498292-.21631823-.5565645-.36424719-1.1926334-.40672552-2.1239688-.03236306-.7092932-.04594819-1.0516343-.05060494-2.218259l-.00157683-.6189509v-1.5407837l.00157683-.6189594c.00269601-.6754232.00838464-1.0745579.01897721-1.4285681l.00627559-.1900108c.0067849-.1883144.01513222-.3757082.02535214-.5996955.04247833-.93133541.19040729-1.56740427.40672552-2.1239688.22357745-.57538979.52276875-1.06335615 1.00920713-1.54982917.48647302-.48643838.97443938-.78562968 1.54982917-1.00920713.55656453-.21631823 1.19263339-.36424719 2.1239688-.40672552.2239873-.01021992.4113811-.01856724.5996955-.02535214l.1900108-.00627559c.3540102-.01059257.7531449-.0162812 1.4285681-.01897721l.6189594-.00157683zm-.7703862 4.22366402c-2.4995982 0-4.52587967 2.02628147-4.52587967 4.52587967 0 2.499563 2.02628147 4.5258445 4.52587967 4.5258445 2.499563 0 4.5258445-2.0262815 4.5258445-4.5258445 0-2.4995982-2.0262815-4.52587967-4.5258445-4.52587967zm-.0000001 1.60919537c1.6108207 0 2.9166492 1.3058285 2.9166492 2.9166842 0 1.6108207-1.3058285 2.9166492-2.9166492 2.9166492-1.6108557 0-2.9166842-1.3058285-2.9166842-2.9166492 0-1.6108557 1.3058285-2.9166842 2.9166842-2.9166842zm4.6264008-2.81609192c-.6109738 0-1.1063034.49532995-1.1063034 1.10634028s.4953296 1.10630344 1.1063034 1.10630344c.6110104 0 1.1063403-.49529311 1.1063403-1.10630344s-.4953299-1.10634028-1.1063403-1.10634028z" fill="#9f9f9f"/></svg>