<svg height="23" viewBox="0 0 35 23" width="35" xmlns="http://www.w3.org/2000/svg"><g fill="none" fill-rule="evenodd"><path d="m23.3472 0c6.1078275 0 11.0592 4.9513725 11.0592 11.0592s-4.9513725 11.0592-11.0592 11.0592c-2.2735557 0-4.386873-.6860618-6.1442214-1.8624549 2.9643487-1.984291 4.9154214-5.3626693 4.9154214-9.1967451 0-3.83407579-1.9510727-7.21245413-4.914524-9.19644082 1.756451-1.17669734 3.8697683-1.86275918 6.143324-1.86275918z" fill="#dfdfdf"/><g fill="#9f9f9f"><path d="m11.0592 0c2.2737923 0 4.3873129.68620464 6.1447701 1.86282217-2.9646979 1.98357825-4.9159701 5.36210601-4.9159701 9.19637783 0 3.8342718 1.9512722 7.2127996 4.9149786 9.1967451-1.7564657 1.1762503-3.8699863 1.8624549-6.1437786 1.8624549-6.1078275 0-11.0592-4.9513725-11.0592-11.0592s4.9513725-11.0592 11.0592-11.0592z"/><path d="m17.2039701 1.86282217c2.9633985 1.98399521 4.9144299 5.36234262 4.9144299 9.19637783 0 3.8340352-1.9510314 7.2123826-4.9144299 9.1963778-2.9646979-1.9835782-4.9159701-5.362106-4.9159701-9.1963778 0-3.78103607 1.8974647-7.11889551 4.7921206-9.11330472z"/></g></g></svg>