<svg height="17" viewBox="0 0 49 17" width="49" xmlns="http://www.w3.org/2000/svg"><path d="m31.9004005.40816929c1.5254112 0 2.751371.34580539 3.5268737.66189312l-.5323583 3.40402176-.3531993-.1810075c-.7268738-.31878934-1.6585008-.62407066-2.9458865-.60245782-1.5407677 0-2.2548445.69971558-2.2548445 1.35080228-.0076782.73753805.8343693 1.21842366 2.2087751 1.9478569 2.2727604 1.11846429 3.3246799 2.47737139 3.306764 4.26583357-.030713 3.2608368-2.7180986 5.3626851-6.8515536 5.3626851-1.7685557-.0189112-3.4680072-.3971359-4.3868371-.8347958l.5502742-3.5147875.5067642.2512492c1.2925045.5835466 2.1319925.8212878 3.7060327.8212878 1.1312613 0 2.3469834-.4808856 2.357221-1.5345114.0051189-.6862076-.5093235-1.1778996-2.0449724-1.94785692-1.4895795-.74834446-3.4705666-2.00729219-3.4449724-4.26583362.0230347-3.05281316 2.7616086-5.18437917 6.6519192-5.18437917zm13.6263247.2917733 3.1864715 15.69362091h-3.6548444s-.3608775-1.8046718-.4786106-2.3530975l-.1902215-.000182c-.0408254-.0000591-.085946-.0001316-.1349633-.0002165l-.3376747-.0006468c-.9451436-.0019367-2.5876789-.0060869-3.5824607-.0083003l-.3601773-.0007722c-.053209-.0001082-.1027418-.0002054-.1482001-.0002902l-.2883497-.0003985c-.1535649.4268536-.826691 2.3612024-.826691 2.363904h-4.1360144l5.8457036-14.39414912c.4146252-1.02120652 1.1210237-1.29947179 2.0628883-1.29947179zm-21.91371-.01620963-2.4621571 15.70172574h-3.9363801l2.4647166-15.70172574zm-17.13016365.0027016c.85484456.03512086 1.54588657.32959576 1.78391215 1.32648785l1.37952461 7.2132842.41462519 2.17479169 3.8519194-10.70375732h4.1718462l-6.2014622 15.67200812-4.16416798.0054032-3.49888699-13.63934376c-1.21012927-.72934185-2.59114532-1.31561732-4.13584753-1.72197982l.0511883-.32689416zm36.27714615 4.24692239c-.0369515.10992154-.0792119.23266514-.1233393.35929098l-.0897245.25577916c-.1653197.46870597-.3248932.90947909-.3090568.88161879 0 0-1.2413162 3.4877715-1.5663619 4.39010742h3.2658134c-.0158861-.0813276-.038236-.1943421-.0655426-.3316171l-.0607753-.3046972c-.2659634-1.33057589-.7848338-3.89697816-.7848338-3.89697816z" fill="#9f9f9f" fill-rule="evenodd"/></svg>